HIERARCHY
ROOT Hips
{
	OFFSET 0.00000 0.00000 0.00000
	CHANNELS 6 Xposition Yposition Zposition Zrotation Yrotation Xrotation 
	JOINT LHipJoint
	{
		OFFSET 0 0 0
		CHANNELS 3 Zrotation Yrotation Xrotation
		JOINT LeftUpLeg
		{
			OFFSET 1.41496 -1.84582 0.78394
			CHANNELS 3 Zrotation Yrotation Xrotation
			JOINT LeftLeg
			{
				OFFSET 2.58040 -7.08960 0.00000
				CHANNELS 3 Zrotation Yrotation Xrotation
				JOINT LeftFoot
				{
					OFFSET 2.64719 -7.27309 0.00000
					CHANNELS 3 Zrotation Yrotation Xrotation
					JOINT LeftToeBase
					{
						OFFSET 0.20718 -0.56921 2.20259
						CHANNELS 3 Zrotation Yrotation Xrotation
						End Site
						{
							OFFSET 0.00000 -0.00000 1.14243
						}
					}
				}
			}
		}
	}
	JOINT RHipJoint
	{
		OFFSET 0 0 0
		CHANNELS 3 Zrotation Yrotation Xrotation
		JOINT RightUpLeg
		{
			OFFSET -1.40551 -1.84582 0.78394
			CHANNELS 3 Zrotation Yrotation Xrotation
			JOINT RightLeg
			{
				OFFSET -2.56572 -7.04926 0.00000
				CHANNELS 3 Zrotation Yrotation Xrotation
				JOINT RightFoot
				{
					OFFSET -2.57974 -7.08778 0.00000
					CHANNELS 3 Zrotation Yrotation Xrotation
					JOINT RightToeBase
					{
						OFFSET -0.26704 -0.73369 2.20815
						CHANNELS 3 Zrotation Yrotation Xrotation
						End Site
						{
							OFFSET -0.00000 -0.00000 1.16246
						}
					}
				}
			}
		}
	}
	JOINT LowerBack
	{
		OFFSET 0 0 0
		CHANNELS 3 Zrotation Yrotation Xrotation
		JOINT Spine
		{
			OFFSET -0.04690 2.05196 -0.07017
			CHANNELS 3 Zrotation Yrotation Xrotation
			JOINT Spine1
			{
				OFFSET 0.04085 2.05260 0.00800
				CHANNELS 3 Zrotation Yrotation Xrotation
				JOINT Neck
				{
					OFFSET 0 0 0
					CHANNELS 3 Zrotation Yrotation Xrotation
					JOINT Neck1
					{
						OFFSET -0.03582 1.80995 0.19301
						CHANNELS 3 Zrotation Yrotation Xrotation
						JOINT Head
						{
							OFFSET 0.00952 1.80195 -0.36389
							CHANNELS 3 Zrotation Yrotation Xrotation
							End Site
							{
								OFFSET 0.00392 1.85062 -0.14494
							}
						}
					}
				}
				JOINT LeftShoulder
				{
					OFFSET 0 0 0
					CHANNELS 3 Zrotation Yrotation Xrotation
					JOINT LeftArm
					{
						OFFSET 3.55224 1.39726 -0.13667
						CHANNELS 3 Zrotation Yrotation Xrotation
						JOINT LeftForeArm
						{
							OFFSET 5.14507 -0.00000 -0.00000
							CHANNELS 3 Zrotation Yrotation Xrotation
							JOINT LeftHand
							{
								OFFSET 3.50646 -0.00000 0.00000
								CHANNELS 3 Zrotation Yrotation Xrotation
								JOINT LeftFingerBase
								{
									OFFSET 0 0 0
									CHANNELS 3 Zrotation Yrotation Xrotation
									JOINT LeftHandIndex1
									{
										OFFSET 0.62997 -0.00000 0.00000
										CHANNELS 3 Zrotation Yrotation Xrotation
										End Site
										{
											OFFSET 0.50790 -0.00000 0.00000
										}
									}
								}
								JOINT LThumb
								{
									OFFSET 0 0 0
									CHANNELS 3 Zrotation Yrotation Xrotation
									End Site
									{
										OFFSET 0.51565 -0.00000 0.51565
									}
								}
							}
						}
					}
				}
				JOINT RightShoulder
				{
					OFFSET 0 0 0
					CHANNELS 3 Zrotation Yrotation Xrotation
					JOINT RightArm
					{
						OFFSET -3.06467 1.61290 -0.28813
						CHANNELS 3 Zrotation Yrotation Xrotation
						JOINT RightForeArm
						{
							OFFSET -5.23200 -0.00000 -0.00000
							CHANNELS 3 Zrotation Yrotation Xrotation
							JOINT RightHand
							{
								OFFSET -3.65641 -0.00000 0.00000
								CHANNELS 3 Zrotation Yrotation Xrotation
								JOINT RightFingerBase
								{
									OFFSET 0 0 0
									CHANNELS 3 Zrotation Yrotation Xrotation
									JOINT RightHandIndex1
									{
										OFFSET -0.65681 -0.00000 0.00000
										CHANNELS 3 Zrotation Yrotation Xrotation
										End Site
										{
											OFFSET -0.52953 -0.00000 0.00000
										}
									}
								}
								JOINT RThumb
								{
									OFFSET 0 0 0
									CHANNELS 3 Zrotation Yrotation Xrotation
									End Site
									{
										OFFSET -0.53762 -0.00000 0.53762
									}
								}
							}
						}
					}
				}
			}
		}
	}
}
MOTION
Frames: 16
Frame Time: 0.0434783
0.00 0.00 0.00 0 0 0 0 0 0 -21 0 0 0 0 0 0 0 0 0 0 0 0 0 0 21 0 0 0 0 0 0 0 0 0 0 0 0 0 0 0 0 0 0 0 0 0 0 -16 0 0 21 0 0 11 0 0 0 -8 0 0 0 0 0 0 0 0 0 0 0 0 0 0 0 0 0 0 0 0 8 0 0 0 0 0 0 0 0 0 0 0 0 0 0 0 0 0
0.00 0.00 0.00 -176.4800 9.1826 -147.6160 0.0000 0.0000 0.0000 -13.0473 -9.9780 -45.1445 18.5830 19.9518 85.8537 -0.0926 -8.8609 -4.2675 0.0180 0.8652 2.3780 0.0000 0.0000 0.0000 24.7518 6.3099 -66.3585 -10.1936 -17.5173 60.1333 -2.0731 8.7035 -25.8490 -2.7671 10.3082 -29.9806 4.1712 -0.4551 32.7966 4.4640 2.7814 3.7144 1.3397 1.6209 -12.8746 -2.0378 0.5039 -12.1240 -9.3965 1.7964 -2.3380 -2.5867 0.9841 1.4319 0.0000 -0.0000 0.0000 -87.8010 -0.6062 38.3008 78.0831 -59.4565 -49.6985 -0.0000 0.0000 -0.0883 30.9704 -6.4626 -3.8645 -7.1250 0.0000 -0.0000 3.0929 22.4576 -1.6792 0.0000 -0.0000 0.0000 78.6705 2.8335 29.6856 -44.8309 50.6854 -22.1078 0.0000 -0.0000 -9.4732 -21.6760 -10.9347 4.3116 7.1250 -0.0000 -0.0000 4.8467 -41.6751 0.3986
0.00 0.00 0.00 -171.5820 12.7459 -148.5460 0.0000 0.0000 0.0000 1.0843 -11.2439 -98.5733 14.4855 19.2547 73.6819 0.1800 -8.7027 -9.0871 0.0461 -1.3856 -3.8104 0.0000 0.0000 0.0000 22.7985 1.0024 -36.4455 -11.8143 -18.3111 65.3991 -3.4900 2.1991 -34.8886 -6.4136 14.8175 -46.6200 6.2088 0.5044 37.7693 0.9736 5.6400 8.6666 -4.5278 3.5233 -8.5233 0.1180 -0.5141 -10.2624 -10.3615 0.0491 -2.6976 -3.3847 0.1364 0.9373 -0.0000 -0.0000 0.0000 -85.0356 -5.6834 20.3208 63.0905 -57.0788 -36.9242 -0.0000 0.0000 -5.6487 32.1075 -3.5247 -2.2092 -7.1250 0.0000 -0.0000 4.1506 25.8180 -1.9334 -0.0000 -0.0000 0.0000 80.1328 28.9645 37.3424 -72.4983 58.8104 -44.9037 0.0000 -0.0000 -6.4164 -22.1819 -5.9468 2.4188 7.1250 -0.0000 -0.0000 3.8234 -36.3753 0.8123
0.00 0.00 0.00 -168.7940 12.0902 -145.8220 0.0000 0.0000 0.0000 0.1474 -12.5126 -102.4538 10.9682 17.9195 62.6781 0.0342 -3.9979 6.9510 0.0023 -0.3109 -0.8542 0.0000 0.0000 0.0000 23.9634 1.1744 -21.3273 -7.5250 -15.7585 50.8330 -2.5710 2.7082 -29.6674 -7.0541 15.3773 -49.0785 6.2786 1.4544 36.3568 -0.0403 6.6122 8.9537 -5.8882 4.0402 -7.5010 1.3706 -0.7161 -8.7706 -9.7571 -0.4833 -1.5469 -3.4270 -0.2091 1.0172 0.0000 -0.0000 0.0000 -81.3783 -7.6341 19.0865 72.2908 -58.7812 -44.7262 -0.0000 0.0000 -4.3788 32.3618 -3.1441 -1.9906 -7.1250 0.0000 -0.0000 4.3696 26.2549 -1.9913 0.0000 -0.0000 0.0000 82.2720 32.2795 39.6230 -85.9397 59.9376 -56.4844 0.0000 -0.0000 -5.0372 -22.2438 -2.9114 1.1900 7.1250 -0.0000 -0.0000 3.5468 -33.1102 1.0351
0.00 0.00 0.00 -166.1340 10.4942 -142.3910 0.0000 0.0000 0.0000 -0.6291 -14.0391 -103.6538 11.6830 18.2534 64.9806 0.0525 -3.3496 6.8180 0.6453 5.1391 14.3057 0.0000 0.0000 0.0000 25.7270 2.6297 -11.4889 -4.2037 -12.4267 37.2585 -0.7216 6.6419 -15.1755 -6.6362 15.0177 -47.4845 6.0972 2.3147 35.0754 -0.4662 7.4118 8.9424 -6.4676 4.4063 -7.0456 2.2519 -0.7596 -8.3157 -9.5328 -0.6664 -0.9574 -3.5252 -0.3388 1.1171 -0.0000 0.0000 0.0000 -78.2176 -10.9258 18.6051 78.6258 -59.5055 -50.1660 -0.0000 0.0000 -3.5464 32.2400 -3.0768 -1.9389 -7.1250 0.0000 -0.0000 4.2821 26.3393 -1.9427 -0.0000 0.0000 0.0000 83.4528 34.0064 40.4038 -94.5918 59.9202 -63.9756 0.0000 -0.0000 -4.7098 -22.9092 -1.2273 0.5186 7.1250 -0.0000 -0.0000 2.9259 -31.3042 0.9808
0.00 0.00 0.00 -163.9170 8.5509 -138.4710 0.0000 0.0000 0.0000 1.3543 -15.1957 -104.1858 13.1373 18.8312 69.5514 0.0034 -2.2151 -1.7941 2.2104 9.2912 26.7105 0.0000 0.0000 0.0000 27.1624 3.0862 -6.6637 -2.0958 -9.0628 25.9920 0.0531 4.6487 4.0592 -5.1556 13.5569 -41.4908 5.5867 3.1910 33.8489 -0.6924 8.1086 8.6390 -6.6012 4.6782 -6.8634 2.4585 -0.4012 -8.7818 -9.0621 -0.9104 -0.4342 -3.4309 -0.7968 1.3575 -0.0000 0.0000 0.0000 -75.4805 -14.9771 18.0231 82.4033 -59.7808 -53.4259 -0.0000 0.0000 -3.5312 32.2277 -3.0210 -1.9029 -7.1250 0.0000 -0.0000 4.2766 26.4056 -1.9336 -0.0000 0.0000 0.0000 84.0635 35.2283 40.1793 -100.5607 59.5744 -69.1328 0.0000 -0.0000 -3.7442 -23.5249 -0.0022 0.0010 7.1250 -0.0000 -0.0000 2.3965 -29.9779 0.8791
0.00 0.00 0.00 -162.6480 4.1981 -132.8920 0.0000 0.0000 0.0000 7.8497 -18.2143 -104.8013 14.8095 19.3414 74.6622 0.3682 -2.4423 -10.8791 2.3419 9.5446 27.5141 0.0000 0.0000 0.0000 28.8415 0.1431 -6.6322 -0.8853 -5.9977 16.7778 -1.8985 -3.5434 25.1801 -2.8851 10.5067 -30.6336 5.2743 3.4548 33.3755 -1.3916 8.1025 8.0867 -7.1794 4.5811 -7.2314 2.5086 -0.8105 -10.2256 -7.7726 -1.4313 0.0515 -3.0499 -1.0456 1.7405 -0.0000 -0.0000 0.0000 -70.3111 -23.0364 16.6898 85.8381 -59.9344 -56.3965 -0.0000 0.0000 -5.0125 32.3101 -2.0595 -1.3019 -7.1250 0.0000 -0.0000 4.4038 27.5355 -1.8742 -0.0000 -0.0000 0.0000 84.0718 37.2506 38.2697 -107.9710 58.7438 -75.4977 0.0000 -0.0000 -3.2869 -23.8785 1.0719 -0.4745 7.1250 -0.0000 -0.0000 2.0970 -28.8050 0.8276
0.00 0.00 0.00 -162.2070 -1.4210 -125.5790 0.0000 0.0000 0.0000 15.0603 -22.4836 -99.5255 14.2486 19.1877 72.9624 1.0907 -3.8056 -18.8375 1.5503 7.8587 22.2858 0.0000 0.0000 0.0000 31.1689 -6.8921 -18.6118 -2.8752 -10.4902 30.5793 -1.1149 -2.1839 19.3507 -2.7017 10.1957 -29.6129 3.9998 3.3608 34.8032 -3.0156 7.6542 8.6514 -8.1519 4.4453 -7.1581 2.3659 -1.2624 -10.0169 -6.9749 -2.2007 -2.0005 -2.7404 -1.3987 0.9907 0.0000 -0.0000 0.0000 -57.6892 -41.9045 9.7370 84.6086 -59.8899 -55.3326 -0.0000 0.0000 -7.6808 32.8846 -1.2611 -0.8153 -7.1250 0.0000 -0.0000 4.8985 28.4651 -1.9782 0.0000 -0.0000 0.0000 80.9812 44.6748 33.1804 -115.3090 57.4356 -81.7296 0.0000 -0.0000 -3.5110 -26.2265 1.4750 -0.7265 7.1250 -0.0000 -0.0000 0.2700 -28.3355 0.1095
0.00 0.00 0.00 -160.8520 -4.9943 -120.1820 0.0000 0.0000 0.0000 18.3295 -23.5195 -93.0692 11.8702 18.3352 65.5768 1.2940 -3.3240 -20.6657 1.1339 6.7628 19.0144 0.0000 0.0000 0.0000 33.3316 -10.4075 -27.7461 -6.4190 -14.8225 46.6411 -0.7096 -2.6593 15.2324 -2.4921 9.8236 -28.4074 2.9582 3.9558 35.9042 -3.2952 8.1588 9.0541 -8.1261 4.6922 -7.1179 2.0393 -1.6379 -9.5709 -8.0198 -2.8346 -3.2789 -3.0266 -1.7457 0.4618 -0.0000 0.0000 0.0000 -44.3003 -54.9333 -1.3196 77.6356 -59.4144 -49.3132 -0.0000 0.0000 -5.5083 34.6714 -1.2798 -0.8851 -7.1250 0.0000 -0.0000 6.2777 28.4025 -2.5500 -0.0000 0.0000 0.0000 75.7384 52.2310 28.7582 -115.2952 57.4386 -81.7179 0.0000 -0.0000 -4.6242 -27.9127 1.2615 -0.6682 7.1250 -0.0000 -0.0000 -1.0420 -28.5516 -0.4173
0.00 0.00 0.00 -161.1750 -9.4505 -114.0250 0.0000 0.0000 0.0000 20.4642 -24.3983 -86.4959 8.5036 16.4774 54.3569 0.8672 -3.2640 -16.7990 0.5653 4.8157 13.3836 0.0000 0.0000 0.0000 34.5568 -13.9519 -35.2800 -10.9914 -17.9309 62.7536 -0.6974 -2.3107 15.1595 -1.5263 7.8006 -22.1099 2.1358 3.9138 36.8904 -3.4220 7.7793 9.0929 -7.7555 4.4538 -7.4084 1.4635 -1.9926 -9.0113 -8.6977 -3.4193 -4.4308 -3.1390 -2.0399 -0.0398 0.0000 -0.0000 0.0000 -22.6904 -63.6560 -21.1085 67.9227 -58.0758 -41.0040 -0.0000 0.0000 -4.9586 35.0502 -1.1732 -0.8229 -7.1250 0.0000 -0.0000 6.5793 28.5226 -2.6551 0.0000 -0.0000 0.0000 68.4420 59.6557 23.2634 -112.4040 58.0158 -79.2731 0.0000 -0.0000 -3.4002 -28.8079 0.8765 -0.4820 7.1250 -0.0000 -0.0000 -1.7479 -28.9776 -0.6826
0.00 0.00 0.00 -163.1990 -15.8213 -104.1800 0.0000 0.0000 0.0000 23.9687 -23.8304 -80.4779 4.3960 12.6696 38.1438 0.0249 -2.1086 -2.9627 0.0927 1.9640 5.4061 0.0000 0.0000 0.0000 35.1448 -16.4114 -40.2455 -15.9265 -19.5974 78.0127 -0.4394 2.6339 13.7624 -2.9562 10.6238 -31.0213 3.3234 5.9696 36.2129 -2.8594 6.5772 9.1853 -7.1222 2.5868 -7.2255 0.8760 -2.7144 -8.5335 -9.5649 -4.4736 -4.9320 -3.3325 -2.5741 -0.3524 0.0000 -0.0000 0.0000 14.3173 -68.6977 -55.6877 55.5811 -55.0126 -30.6916 -0.0000 0.0000 -4.2742 36.1858 -1.7267 -1.2627 -7.1250 0.0000 -0.0000 7.4001 27.8155 -3.1159 0.0000 -0.0000 0.0000 52.4085 64.6171 9.2007 -107.7086 58.7813 -75.2733 0.0000 0.0000 1.0076 -31.4702 1.0717 -0.6559 7.1250 -0.0000 -0.0000 -3.8131 -28.7149 -1.5152
0.00 0.00 0.00 -166.0520 -20.1623 -94.4302 0.0000 0.0000 0.0000 27.7851 -22.7864 -79.6732 2.7777 10.3262 30.0398 0.0757 5.7632 5.9435 0.0136 -0.7520 -2.0666 0.0000 0.0000 0.0000 34.0751 -14.6375 -41.0394 -18.4700 -19.9438 85.5227 -0.1698 6.6106 12.8464 -4.3602 12.6249 -37.9802 2.4783 5.7461 33.7444 -2.8398 6.4496 8.6109 -6.5214 2.6886 -7.0687 0.4922 -3.3673 -8.3475 -10.1318 -5.3459 -4.6161 -3.4712 -3.0255 -0.3425 -0.0000 0.0000 0.0000 43.1382 -67.4504 -82.8461 48.3315 -52.3000 -24.8478 -0.0000 0.0000 -0.5436 37.2729 -3.7994 -2.8870 -7.1250 0.0000 -0.0000 7.9902 25.2043 -3.8626 -0.0000 0.0000 0.0000 37.6179 64.5295 -3.8842 -102.8554 59.3663 -71.1094 0.0000 0.0000 3.3611 -35.1772 0.8348 -0.5883 7.1250 -0.0000 -0.0000 -6.7070 -28.9308 -2.6419
0.00 0.00 0.00 -170.5000 -23.8504 -83.9689 0.0000 0.0000 0.0000 19.5602 -18.4670 -80.4673 3.6406 11.6661 34.5609 0.1711 4.8122 7.5955 0.2386 -3.1438 -8.6792 0.0000 0.0000 0.0000 30.9220 -10.5070 -36.8468 -19.5178 -19.9944 88.5899 -0.1733 5.9039 12.1707 -4.1975 12.4187 -37.2295 1.6784 4.7911 33.1471 -3.3680 5.2711 7.9399 -6.2833 2.2353 -7.7387 -0.0344 -3.6714 -8.4644 -10.5640 -5.6641 -4.1074 -3.5403 -3.1968 -0.1777 -0.0000 -0.0000 0.0000 66.7288 -62.0680 -104.3641 41.9845 -49.2027 -19.9288 -0.0000 -0.0000 2.1493 37.2656 -4.3162 -3.2773 -7.1250 0.0000 -0.0000 7.9226 24.5636 -3.9483 -0.0000 -0.0000 0.0000 21.8400 63.0767 -17.2386 -94.5685 59.9210 -63.9554 0.0000 0.0000 7.5976 -38.3645 1.7459 -1.3815 7.1250 -0.0000 -0.0000 -9.0604 -27.7161 -3.8515
0.00 0.00 0.00 -176.7240 -26.6911 -73.4195 0.0000 0.0000 0.0000 13.6528 -15.7987 -79.6411 7.2700 15.5551 49.8881 0.1830 -6.6246 13.0808 0.4777 -4.4325 -12.2966 0.0000 0.0000 0.0000 28.4966 -7.0517 -30.3495 -18.8740 -19.9696 86.7060 -0.2863 -2.0549 9.6018 -1.9899 8.8450 -25.3118 2.0121 2.7109 35.4298 -4.0325 2.9110 7.0623 -6.4870 1.1398 -9.7807 -1.5630 -3.3069 -7.9744 -10.8510 -4.9645 -3.7767 -3.3342 -2.7995 -0.0867 -0.0000 -0.0000 0.0000 81.9839 -57.9516 -116.3166 36.7016 -45.9897 -16.0251 -0.0000 -0.0000 4.4775 39.2260 -2.7142 -2.2138 -7.1250 0.0000 -0.0000 9.5851 26.4525 -4.3693 -0.0000 -0.0000 0.0000 7.4210 60.4353 -26.9595 -85.4745 59.9225 -56.0818 0.0000 0.0000 12.6283 -38.2072 4.4420 -3.4886 7.1250 -0.0000 -0.0000 -8.5994 -24.3377 -4.3382
0.00 0.00 0.00 -184.6040 -25.7095 -58.9959 0.0000 0.0000 0.0000 7.9843 -12.4300 -73.6192 12.2378 18.4894 66.7405 0.1003 -8.8630 14.3329 0.5587 -4.7876 -13.3037 0.0000 0.0000 0.0000 25.5129 -8.7613 -27.8618 -17.7670 -19.8800 83.4586 0.5042 -17.3896 6.6048 -0.0986 -2.0247 5.5739 1.5589 0.5246 35.7917 -6.3149 -0.1016 7.0296 -7.5816 -0.1445 -10.3609 -2.5457 -2.7260 -9.7706 -11.6620 -3.6632 -1.8960 -3.4898 -2.2398 0.9062 0.0000 0.0000 0.0000 91.8341 -67.9816 -125.8037 49.6618 -52.8582 -25.9043 -0.0000 -0.0000 19.3203 57.3454 -5.9213 -9.1446 -7.1250 0.0000 -0.0000 21.4314 19.4043 -14.1082 0.0000 0.0000 0.0000 3.5467 50.8495 -20.2124 -95.7834 59.8732 -65.0065 0.0000 0.0000 10.1154 -40.3884 6.7318 -5.6949 7.1250 -0.0000 -0.0000 -9.8392 -21.2226 -5.6931
0.00 0.00 0.00 -187.7030 -24.6614 -52.1183 0.0000 0.0000 0.0000 6.6990 -8.4113 -69.6624 13.9938 19.1122 72.1856 0.3950 -3.7179 13.8270 0.3013 -3.5293 -9.7562 0.0000 0.0000 0.0000 25.0003 -9.1826 -28.3926 -17.9853 -19.9024 84.1001 0.4051 -15.5346 5.8273 -0.0146 -0.7815 2.1477 -0.1840 0.4821 35.1425 -8.0939 -0.9254 7.4106 -8.2472 -0.4175 -9.8712 -3.2420 -2.7629 -10.1545 -11.6281 -3.4176 -0.7627 -3.3788 -2.1525 1.3684 0.0000 0.0000 0.0000 89.8469 -74.4249 -119.6984 61.4854 -56.6929 -35.5798 -0.0000 -0.0000 19.1418 60.3544 -10.1410 -17.1904 -7.1250 0.0000 -0.0000 21.8016 11.0907 -18.6402 0.0000 0.0000 0.0000 11.1437 42.8660 -5.8806 -115.5365 57.3865 -81.9213 0.0000 -0.0000 -2.5150 -35.5002 7.6434 -5.4197 7.1250 -0.0000 -0.0000 -6.2456 -20.6445 -3.6640
